<mxfile host="app.diagrams.net" modified="2023-09-22T08:43:16.268Z" agent="Mozilla/5.0 (Windows NT 10.0; Win64; x64; rv:109.0) Gecko/20100101 Firefox/117.0" etag="nlA6pHNhREqldREu5DZh" version="21.8.0" type="onedrive">
  <diagram name="Sida-1" id="LCY-jOCysvInWSpK1uoX">
    <mxGraphModel grid="1" page="1" gridSize="10" guides="1" tooltips="1" connect="1" arrows="1" fold="1" pageScale="1" pageWidth="3300" pageHeight="4681" background="none" math="0" shadow="0">
      <root>
        <mxCell id="0" />
        <mxCell id="1" parent="0" />
        <mxCell id="o9f7hDA8b4qY3KdYK3ok-4" value="&lt;div&gt;Portfolio Website&lt;/div&gt;" style="shape=umlFrame;whiteSpace=wrap;html=1;pointerEvents=0;recursiveResize=0;container=1;collapsible=0;width=160;rounded=1;labelBackgroundColor=none;fillColor=#F2CC8F;strokeColor=#E07A5F;fontColor=#393C56;" vertex="1" parent="1">
          <mxGeometry x="610" width="1040" height="760" as="geometry" />
        </mxCell>
        <mxCell id="o9f7hDA8b4qY3KdYK3ok-16" value="View Portfolio" style="ellipse;whiteSpace=wrap;html=1;rounded=1;labelBackgroundColor=none;fillColor=#F2CC8F;strokeColor=#E07A5F;fontColor=#393C56;" vertex="1" parent="o9f7hDA8b4qY3KdYK3ok-4">
          <mxGeometry x="320" width="140" height="70" as="geometry" />
        </mxCell>
        <mxCell id="o9f7hDA8b4qY3KdYK3ok-23" style="edgeStyle=orthogonalEdgeStyle;rounded=1;orthogonalLoop=1;jettySize=auto;html=1;exitX=1;exitY=0.3333333333333333;exitDx=0;exitDy=0;exitPerimeter=0;entryX=0;entryY=0.5;entryDx=0;entryDy=0;strokeColor=#E07A5F;fontColor=default;fillColor=#F2CC8F;endArrow=none;endFill=0;labelBackgroundColor=none;" edge="1" parent="o9f7hDA8b4qY3KdYK3ok-4" source="o9f7hDA8b4qY3KdYK3ok-1" target="o9f7hDA8b4qY3KdYK3ok-19">
          <mxGeometry relative="1" as="geometry" />
        </mxCell>
        <mxCell id="o9f7hDA8b4qY3KdYK3ok-24" style="edgeStyle=orthogonalEdgeStyle;rounded=1;orthogonalLoop=1;jettySize=auto;html=1;exitX=1;exitY=0.3333333333333333;exitDx=0;exitDy=0;exitPerimeter=0;entryX=0;entryY=0.5;entryDx=0;entryDy=0;strokeColor=#E07A5F;fontColor=default;fillColor=#F2CC8F;endArrow=none;endFill=0;labelBackgroundColor=none;" edge="1" parent="o9f7hDA8b4qY3KdYK3ok-4" source="o9f7hDA8b4qY3KdYK3ok-1" target="o9f7hDA8b4qY3KdYK3ok-20">
          <mxGeometry relative="1" as="geometry" />
        </mxCell>
        <mxCell id="o9f7hDA8b4qY3KdYK3ok-25" style="edgeStyle=orthogonalEdgeStyle;rounded=1;orthogonalLoop=1;jettySize=auto;html=1;exitX=1;exitY=0.3333333333333333;exitDx=0;exitDy=0;exitPerimeter=0;entryX=0;entryY=0.5;entryDx=0;entryDy=0;strokeColor=#E07A5F;fontColor=default;fillColor=#F2CC8F;endArrow=none;endFill=0;labelBackgroundColor=none;" edge="1" parent="o9f7hDA8b4qY3KdYK3ok-4" source="o9f7hDA8b4qY3KdYK3ok-1" target="o9f7hDA8b4qY3KdYK3ok-21">
          <mxGeometry relative="1" as="geometry" />
        </mxCell>
        <mxCell id="o9f7hDA8b4qY3KdYK3ok-26" style="edgeStyle=orthogonalEdgeStyle;rounded=1;orthogonalLoop=1;jettySize=auto;html=1;exitX=1;exitY=0.3333333333333333;exitDx=0;exitDy=0;exitPerimeter=0;entryX=0;entryY=0.5;entryDx=0;entryDy=0;strokeColor=#E07A5F;fontColor=default;fillColor=#F2CC8F;endArrow=none;endFill=0;labelBackgroundColor=none;" edge="1" parent="o9f7hDA8b4qY3KdYK3ok-4" source="o9f7hDA8b4qY3KdYK3ok-1" target="o9f7hDA8b4qY3KdYK3ok-22">
          <mxGeometry relative="1" as="geometry" />
        </mxCell>
        <mxCell id="o9f7hDA8b4qY3KdYK3ok-30" style="edgeStyle=orthogonalEdgeStyle;rounded=1;orthogonalLoop=1;jettySize=auto;html=1;exitX=1;exitY=0.3333333333333333;exitDx=0;exitDy=0;exitPerimeter=0;entryX=0;entryY=0.5;entryDx=0;entryDy=0;strokeColor=#E07A5F;fontColor=default;fillColor=#F2CC8F;endArrow=none;endFill=0;labelBackgroundColor=none;" edge="1" parent="o9f7hDA8b4qY3KdYK3ok-4" source="o9f7hDA8b4qY3KdYK3ok-1" target="o9f7hDA8b4qY3KdYK3ok-28">
          <mxGeometry relative="1" as="geometry" />
        </mxCell>
        <mxCell id="o9f7hDA8b4qY3KdYK3ok-31" style="edgeStyle=orthogonalEdgeStyle;rounded=1;orthogonalLoop=1;jettySize=auto;html=1;exitX=1;exitY=0.3333333333333333;exitDx=0;exitDy=0;exitPerimeter=0;entryX=0;entryY=0.5;entryDx=0;entryDy=0;strokeColor=#E07A5F;fontColor=default;fillColor=#F2CC8F;endArrow=none;endFill=0;labelBackgroundColor=none;" edge="1" parent="o9f7hDA8b4qY3KdYK3ok-4" source="o9f7hDA8b4qY3KdYK3ok-1" target="o9f7hDA8b4qY3KdYK3ok-29">
          <mxGeometry relative="1" as="geometry" />
        </mxCell>
        <mxCell id="o9f7hDA8b4qY3KdYK3ok-32" style="edgeStyle=orthogonalEdgeStyle;rounded=1;orthogonalLoop=1;jettySize=auto;html=1;exitX=1;exitY=0.3333333333333333;exitDx=0;exitDy=0;exitPerimeter=0;entryX=0;entryY=0.5;entryDx=0;entryDy=0;strokeColor=#E07A5F;fontColor=default;fillColor=#F2CC8F;endArrow=none;endFill=0;labelBackgroundColor=none;" edge="1" parent="o9f7hDA8b4qY3KdYK3ok-4" source="o9f7hDA8b4qY3KdYK3ok-1" target="o9f7hDA8b4qY3KdYK3ok-16">
          <mxGeometry relative="1" as="geometry" />
        </mxCell>
        <mxCell id="o9f7hDA8b4qY3KdYK3ok-1" value="End User" style="shape=umlActor;verticalLabelPosition=bottom;verticalAlign=top;html=1;outlineConnect=0;rounded=1;labelBackgroundColor=none;fillColor=#F2CC8F;strokeColor=#E07A5F;fontColor=#393C56;" vertex="1" parent="o9f7hDA8b4qY3KdYK3ok-4">
          <mxGeometry x="10" y="260" width="50" height="100" as="geometry" />
        </mxCell>
        <mxCell id="o9f7hDA8b4qY3KdYK3ok-19" value="Contact Administrator " style="ellipse;whiteSpace=wrap;html=1;rounded=1;labelBackgroundColor=none;fillColor=#F2CC8F;strokeColor=#E07A5F;fontColor=#393C56;" vertex="1" parent="o9f7hDA8b4qY3KdYK3ok-4">
          <mxGeometry x="320" y="80" width="140" height="70" as="geometry" />
        </mxCell>
        <mxCell id="o9f7hDA8b4qY3KdYK3ok-20" value="View Project Details" style="ellipse;whiteSpace=wrap;html=1;rounded=1;labelBackgroundColor=none;fillColor=#F2CC8F;strokeColor=#E07A5F;fontColor=#393C56;" vertex="1" parent="o9f7hDA8b4qY3KdYK3ok-4">
          <mxGeometry x="320" y="160" width="140" height="70" as="geometry" />
        </mxCell>
        <mxCell id="o9f7hDA8b4qY3KdYK3ok-21" value="Leave Feedback or Comment" style="ellipse;whiteSpace=wrap;html=1;rounded=1;labelBackgroundColor=none;fillColor=#F2CC8F;strokeColor=#E07A5F;fontColor=#393C56;" vertex="1" parent="o9f7hDA8b4qY3KdYK3ok-4">
          <mxGeometry x="320" y="240" width="140" height="70" as="geometry" />
        </mxCell>
        <mxCell id="o9f7hDA8b4qY3KdYK3ok-22" value="Search for Specific Skill or Project" style="ellipse;whiteSpace=wrap;html=1;rounded=1;labelBackgroundColor=none;fillColor=#F2CC8F;strokeColor=#E07A5F;fontColor=#393C56;" vertex="1" parent="o9f7hDA8b4qY3KdYK3ok-4">
          <mxGeometry x="320" y="320" width="140" height="70" as="geometry" />
        </mxCell>
        <mxCell id="o9f7hDA8b4qY3KdYK3ok-28" value="Share Project" style="ellipse;whiteSpace=wrap;html=1;rounded=1;labelBackgroundColor=none;fillColor=#F2CC8F;strokeColor=#E07A5F;fontColor=#393C56;" vertex="1" parent="o9f7hDA8b4qY3KdYK3ok-4">
          <mxGeometry x="320" y="400" width="140" height="70" as="geometry" />
        </mxCell>
        <mxCell id="o9f7hDA8b4qY3KdYK3ok-29" value="Bookmark or Save Project" style="ellipse;whiteSpace=wrap;html=1;rounded=1;labelBackgroundColor=none;fillColor=#F2CC8F;strokeColor=#E07A5F;fontColor=#393C56;" vertex="1" parent="o9f7hDA8b4qY3KdYK3ok-4">
          <mxGeometry x="320" y="480" width="140" height="70" as="geometry" />
        </mxCell>
        <mxCell id="0m6QH9y6_JeQqxLbj5Hr-9" style="edgeStyle=orthogonalEdgeStyle;shape=connector;rounded=1;orthogonalLoop=1;jettySize=auto;html=1;exitX=0;exitY=0.3333333333333333;exitDx=0;exitDy=0;exitPerimeter=0;entryX=1;entryY=0.5;entryDx=0;entryDy=0;labelBackgroundColor=default;strokeColor=#E07A5F;align=center;verticalAlign=middle;fontFamily=Helvetica;fontSize=11;fontColor=#393C56;endArrow=none;endFill=0;fillColor=#F2CC8F;" edge="1" parent="o9f7hDA8b4qY3KdYK3ok-4" source="0m6QH9y6_JeQqxLbj5Hr-3" target="0m6QH9y6_JeQqxLbj5Hr-8">
          <mxGeometry relative="1" as="geometry" />
        </mxCell>
        <mxCell id="0m6QH9y6_JeQqxLbj5Hr-12" style="edgeStyle=orthogonalEdgeStyle;shape=connector;rounded=1;orthogonalLoop=1;jettySize=auto;html=1;exitX=0;exitY=0.3333333333333333;exitDx=0;exitDy=0;exitPerimeter=0;entryX=1;entryY=0.5;entryDx=0;entryDy=0;labelBackgroundColor=default;strokeColor=#E07A5F;align=center;verticalAlign=middle;fontFamily=Helvetica;fontSize=11;fontColor=#393C56;endArrow=none;endFill=0;fillColor=#F2CC8F;" edge="1" parent="o9f7hDA8b4qY3KdYK3ok-4" source="0m6QH9y6_JeQqxLbj5Hr-3" target="0m6QH9y6_JeQqxLbj5Hr-11">
          <mxGeometry relative="1" as="geometry" />
        </mxCell>
        <mxCell id="0m6QH9y6_JeQqxLbj5Hr-14" style="edgeStyle=orthogonalEdgeStyle;shape=connector;rounded=1;orthogonalLoop=1;jettySize=auto;html=1;exitX=0;exitY=0.3333333333333333;exitDx=0;exitDy=0;exitPerimeter=0;entryX=1;entryY=0.5;entryDx=0;entryDy=0;labelBackgroundColor=default;strokeColor=#E07A5F;align=center;verticalAlign=middle;fontFamily=Helvetica;fontSize=11;fontColor=#393C56;endArrow=none;endFill=0;fillColor=#F2CC8F;" edge="1" parent="o9f7hDA8b4qY3KdYK3ok-4" source="0m6QH9y6_JeQqxLbj5Hr-3" target="0m6QH9y6_JeQqxLbj5Hr-13">
          <mxGeometry relative="1" as="geometry" />
        </mxCell>
        <mxCell id="0m6QH9y6_JeQqxLbj5Hr-16" style="edgeStyle=orthogonalEdgeStyle;shape=connector;rounded=1;orthogonalLoop=1;jettySize=auto;html=1;exitX=0;exitY=0.3333333333333333;exitDx=0;exitDy=0;exitPerimeter=0;entryX=1;entryY=0.5;entryDx=0;entryDy=0;labelBackgroundColor=none;strokeColor=#E07A5F;align=center;verticalAlign=middle;fontFamily=Helvetica;fontSize=11;fontColor=default;endArrow=none;endFill=0;fillColor=#F2CC8F;" edge="1" parent="o9f7hDA8b4qY3KdYK3ok-4" source="0m6QH9y6_JeQqxLbj5Hr-3" target="0m6QH9y6_JeQqxLbj5Hr-15">
          <mxGeometry relative="1" as="geometry" />
        </mxCell>
        <mxCell id="0m6QH9y6_JeQqxLbj5Hr-18" style="edgeStyle=orthogonalEdgeStyle;shape=connector;rounded=1;orthogonalLoop=1;jettySize=auto;html=1;exitX=0;exitY=0.3333333333333333;exitDx=0;exitDy=0;exitPerimeter=0;entryX=1;entryY=0.5;entryDx=0;entryDy=0;labelBackgroundColor=none;strokeColor=#E07A5F;align=center;verticalAlign=middle;fontFamily=Helvetica;fontSize=11;fontColor=default;endArrow=none;endFill=0;fillColor=#F2CC8F;" edge="1" parent="o9f7hDA8b4qY3KdYK3ok-4" source="0m6QH9y6_JeQqxLbj5Hr-3" target="0m6QH9y6_JeQqxLbj5Hr-17">
          <mxGeometry relative="1" as="geometry" />
        </mxCell>
        <mxCell id="0m6QH9y6_JeQqxLbj5Hr-20" style="edgeStyle=orthogonalEdgeStyle;shape=connector;rounded=1;orthogonalLoop=1;jettySize=auto;html=1;exitX=0;exitY=0.3333333333333333;exitDx=0;exitDy=0;exitPerimeter=0;entryX=1;entryY=0.5;entryDx=0;entryDy=0;labelBackgroundColor=none;strokeColor=#E07A5F;align=center;verticalAlign=middle;fontFamily=Helvetica;fontSize=11;fontColor=default;endArrow=none;endFill=0;fillColor=#F2CC8F;" edge="1" parent="o9f7hDA8b4qY3KdYK3ok-4" source="0m6QH9y6_JeQqxLbj5Hr-3" target="0m6QH9y6_JeQqxLbj5Hr-19">
          <mxGeometry relative="1" as="geometry" />
        </mxCell>
        <mxCell id="0m6QH9y6_JeQqxLbj5Hr-3" value="Administrator" style="shape=umlActor;verticalLabelPosition=bottom;verticalAlign=top;html=1;outlineConnect=0;rounded=1;labelBackgroundColor=none;fillColor=#F2CC8F;strokeColor=#E07A5F;fontColor=#393C56;" vertex="1" parent="o9f7hDA8b4qY3KdYK3ok-4">
          <mxGeometry x="970" y="260" width="50" height="100" as="geometry" />
        </mxCell>
        <mxCell id="0m6QH9y6_JeQqxLbj5Hr-6" style="edgeStyle=orthogonalEdgeStyle;rounded=1;orthogonalLoop=1;jettySize=auto;html=1;exitX=1;exitY=0.5;exitDx=0;exitDy=0;entryX=0;entryY=0.3333333333333333;entryDx=0;entryDy=0;entryPerimeter=0;strokeColor=#E07A5F;fontColor=#393C56;fillColor=#F2CC8F;endArrow=none;endFill=0;" edge="1" parent="o9f7hDA8b4qY3KdYK3ok-4" source="o9f7hDA8b4qY3KdYK3ok-19" target="0m6QH9y6_JeQqxLbj5Hr-3">
          <mxGeometry relative="1" as="geometry" />
        </mxCell>
        <mxCell id="0m6QH9y6_JeQqxLbj5Hr-8" value="Manage User Profiles" style="ellipse;whiteSpace=wrap;html=1;rounded=1;labelBackgroundColor=none;fillColor=#F2CC8F;strokeColor=#E07A5F;fontColor=#393C56;" vertex="1" parent="o9f7hDA8b4qY3KdYK3ok-4">
          <mxGeometry x="320" y="560" width="140" height="70" as="geometry" />
        </mxCell>
        <mxCell id="0m6QH9y6_JeQqxLbj5Hr-10" style="edgeStyle=orthogonalEdgeStyle;shape=connector;rounded=1;orthogonalLoop=1;jettySize=auto;html=1;exitX=0;exitY=0.5;exitDx=0;exitDy=0;entryX=1;entryY=0.3333333333333333;entryDx=0;entryDy=0;entryPerimeter=0;labelBackgroundColor=default;strokeColor=#E07A5F;align=center;verticalAlign=middle;fontFamily=Helvetica;fontSize=11;fontColor=#393C56;endArrow=none;endFill=0;fillColor=#F2CC8F;" edge="1" parent="o9f7hDA8b4qY3KdYK3ok-4" source="0m6QH9y6_JeQqxLbj5Hr-8" target="o9f7hDA8b4qY3KdYK3ok-1">
          <mxGeometry relative="1" as="geometry">
            <Array as="points">
              <mxPoint x="150" y="595" />
              <mxPoint x="150" y="293" />
            </Array>
          </mxGeometry>
        </mxCell>
        <mxCell id="0m6QH9y6_JeQqxLbj5Hr-11" value="Customization of Website" style="ellipse;whiteSpace=wrap;html=1;rounded=1;labelBackgroundColor=none;fillColor=#F2CC8F;strokeColor=#E07A5F;fontColor=#393C56;" vertex="1" parent="o9f7hDA8b4qY3KdYK3ok-4">
          <mxGeometry x="520" y="160" width="140" height="70" as="geometry" />
        </mxCell>
        <mxCell id="0m6QH9y6_JeQqxLbj5Hr-13" value="Analytics and Reporting" style="ellipse;whiteSpace=wrap;html=1;rounded=1;labelBackgroundColor=none;fillColor=#F2CC8F;strokeColor=#E07A5F;fontColor=#393C56;" vertex="1" parent="o9f7hDA8b4qY3KdYK3ok-4">
          <mxGeometry x="520" y="240" width="140" height="70" as="geometry" />
        </mxCell>
        <mxCell id="0m6QH9y6_JeQqxLbj5Hr-15" value="Security Management" style="ellipse;whiteSpace=wrap;html=1;rounded=1;labelBackgroundColor=none;fillColor=#F2CC8F;strokeColor=#E07A5F;fontColor=#393C56;" vertex="1" parent="o9f7hDA8b4qY3KdYK3ok-4">
          <mxGeometry x="520" y="320" width="140" height="70" as="geometry" />
        </mxCell>
        <mxCell id="0m6QH9y6_JeQqxLbj5Hr-17" value="Content Management" style="ellipse;whiteSpace=wrap;html=1;rounded=1;labelBackgroundColor=none;fillColor=#F2CC8F;strokeColor=#E07A5F;fontColor=#393C56;" vertex="1" parent="o9f7hDA8b4qY3KdYK3ok-4">
          <mxGeometry x="520" y="400" width="140" height="70" as="geometry" />
        </mxCell>
        <mxCell id="0m6QH9y6_JeQqxLbj5Hr-19" value="Review&amp;nbsp; User Content" style="ellipse;whiteSpace=wrap;html=1;rounded=1;labelBackgroundColor=none;fillColor=#F2CC8F;strokeColor=#E07A5F;fontColor=#393C56;" vertex="1" parent="o9f7hDA8b4qY3KdYK3ok-4">
          <mxGeometry x="320" y="640" width="140" height="70" as="geometry" />
        </mxCell>
        <mxCell id="0m6QH9y6_JeQqxLbj5Hr-21" style="edgeStyle=orthogonalEdgeStyle;shape=connector;rounded=1;orthogonalLoop=1;jettySize=auto;html=1;exitX=0;exitY=0.5;exitDx=0;exitDy=0;entryX=1;entryY=0.3333333333333333;entryDx=0;entryDy=0;entryPerimeter=0;labelBackgroundColor=none;strokeColor=#E07A5F;align=center;verticalAlign=middle;fontFamily=Helvetica;fontSize=11;fontColor=default;endArrow=none;endFill=0;fillColor=#F2CC8F;" edge="1" parent="o9f7hDA8b4qY3KdYK3ok-4" source="0m6QH9y6_JeQqxLbj5Hr-19" target="o9f7hDA8b4qY3KdYK3ok-1">
          <mxGeometry relative="1" as="geometry">
            <Array as="points">
              <mxPoint x="110" y="675" />
              <mxPoint x="110" y="293" />
            </Array>
          </mxGeometry>
        </mxCell>
      </root>
    </mxGraphModel>
  </diagram>
</mxfile>
